<svg xmlns="http://www.w3.org/2000/svg" width="130" height="130"><path d="M65.004 0C29.16 0 0 29.156 0 64.996 0 100.84 29.16 130 65 130s64.996-29.16 64.996-65.004C130 29.156 100.844 0 65.004 0M6.562 64.996a58.2 58.2 0 0 1 5.06-23.781L39.5 117.594C20.004 108.12 6.563 88.129 6.563 64.996m58.442 58.445c-5.738 0-11.274-.84-16.512-2.382l17.535-50.95 17.965 49.215c.117.29.258.555.418.805a58.4 58.4 0 0 1-19.406 3.312m8.05-85.843a118 118 0 0 0 6.692-.555c3.145-.375 2.777-5-.375-4.816 0 0-9.465.742-15.578.742-5.738 0-15.395-.742-15.395-.742-3.148-.184-3.515 4.628-.367 4.816 0 0 2.985.371 6.13.555l9.105 24.949-12.79 38.355L29.2 37.598c3.52-.184 6.688-.555 6.688-.555 3.148-.371 2.777-5-.375-4.813 0 0-9.461.743-15.574.743-1.098 0-2.391-.028-3.762-.07C26.62 17.034 44.586 6.558 65.004 6.558c15.215 0 29.066 5.816 39.46 15.34-.25-.012-.495-.047-.757-.047-5.738 0-9.812 5.003-9.812 10.375 0 4.812 2.777 8.89 5.738 13.703 2.226 3.894 4.816 8.894 4.816 16.117 0 5.004-1.918 10.808-4.445 18.894l-5.828 19.48Zm21.329 77.918 17.847-51.614c3.34-8.336 4.446-15 4.446-20.933 0-2.149-.14-4.145-.395-6.008 4.567 8.324 7.164 17.879 7.16 28.039 0 21.559-11.687 40.383-29.058 50.516m0 0" style="stroke:none;fill-rule:nonzero;fill:#000;fill-opacity:1"/></svg>