<svg xmlns="http://www.w3.org/2000/svg" width="147" height="147"><path d="M140.316 102.453h-15.59V73.5a6.683 6.683 0 0 0-6.68-6.684H80.185v-22.27h15.59a6.683 6.683 0 0 0 6.68-6.683V6.683A6.683 6.683 0 0 0 95.773 0H51.226a6.683 6.683 0 0 0-6.68 6.684v31.18a6.683 6.683 0 0 0 6.68 6.683h15.59v22.27H28.952a6.683 6.683 0 0 0-6.68 6.683v28.953H6.683A6.683 6.683 0 0 0 0 109.137v31.18A6.683 6.683 0 0 0 6.684 147H40.09v-44.547h-4.453v-22.27h31.18v22.27H53.452V147h40.094v-44.547H80.184v-22.27h31.18v22.27h-4.454V147h33.406a6.683 6.683 0 0 0 6.684-6.684v-31.18a6.683 6.683 0 0 0-6.684-6.683m0 0" style="stroke:none;fill-rule:nonzero;fill:#000;fill-opacity:1"/></svg>