<svg xmlns="http://www.w3.org/2000/svg" width="130" height="130"><path d="M130 0H0v130h130ZM69.332 69.332c0-9.57 7.762-17.332 17.336-17.332h10.11c8.777 0 15.89 7.113 15.89 15.89v1.442H104v-1.441a7.22 7.22 0 0 0-7.223-7.223H86.668A8.665 8.665 0 0 0 78 69.332 8.666 8.666 0 0 0 86.668 78h8.664c9.574 0 17.336 7.762 17.336 17.332 0 9.574-7.762 17.336-17.336 17.336h-8.664c-9.574 0-17.336-7.762-17.336-17.336H78A8.666 8.666 0 0 0 86.668 104h8.664A8.666 8.666 0 0 0 104 95.332a8.665 8.665 0 0 0-8.668-8.664h-8.664c-9.574 0-17.336-7.762-17.336-17.336M52 52v43.332A8.666 8.666 0 0 1 43.332 104a8.665 8.665 0 0 1-8.664-8.668H26c0 9.574 7.762 17.336 17.332 17.336 9.574 0 17.336-7.762 17.336-17.336V52Zm0 0" style="stroke:none;fill-rule:evenodd;fill:#000;fill-opacity:1"/></svg>