<svg xmlns="http://www.w3.org/2000/svg" width="154" height="154"><path d="M77 4.45c-7.617 0-13.816 6.198-13.816 13.816 0 7.617 6.199 13.816 13.816 13.816s13.816-6.2 13.816-13.816c0-7.618-6.199-13.817-13.816-13.817M99.352 54.848l-5.864-17.586a5.02 5.02 0 0 0-4.761-3.434H65.273a5.02 5.02 0 0 0-4.761 3.434l-5.864 17.586c-1.082 3.25 1.34 6.609 4.766 6.609h35.172c3.43 0 5.848-3.36 4.766-6.61M22.613 48.496c-7.617 0-13.816 6.2-13.816 13.816 0 7.618 6.2 13.817 13.816 13.817s13.817-6.2 13.817-13.817-6.2-13.816-13.817-13.816M44.965 98.895l-5.863-17.586a5.02 5.02 0 0 0-4.766-3.434h-23.45a5.02 5.02 0 0 0-4.761 3.434L.262 98.895c-1.086 3.25 1.34 6.609 4.761 6.609H40.2c3.426 0 5.848-3.363 4.766-6.61M77 92.543c-7.617 0-13.816 6.195-13.816 13.816 0 7.618 6.199 13.813 13.816 13.813s13.816-6.195 13.816-13.813c0-7.62-6.199-13.816-13.816-13.816M99.352 142.941l-5.864-17.59a5.02 5.02 0 0 0-4.761-3.433H65.273a5.02 5.02 0 0 0-4.761 3.434l-5.864 17.59c-1.082 3.25 1.34 6.609 4.766 6.609h35.172c3.43-.004 5.848-3.363 4.766-6.61M57.059 24.113a5.02 5.02 0 0 0-6.707-2.336c-7.778 3.762-14.829 9.262-20.391 15.91a5.022 5.022 0 0 0 7.703 6.446A51.8 51.8 0 0 1 54.723 30.82a5.023 5.023 0 0 0 2.336-6.707M131.387 48.496c-7.617 0-13.817 6.2-13.817 13.816 0 7.618 6.2 13.817 13.817 13.817s13.816-6.2 13.816-13.817-6.2-13.816-13.816-13.816M153.738 98.895l-5.863-17.586a5.02 5.02 0 0 0-4.762-3.434h-23.449a5.02 5.02 0 0 0-4.766 3.43l-5.863 17.59c-1.082 3.25 1.344 6.609 4.766 6.609h35.176c3.425 0 5.843-3.363 4.761-6.61M124.04 37.688c-5.563-6.649-12.614-12.149-20.392-15.91a5.022 5.022 0 0 0-4.37 9.042 51.8 51.8 0 0 1 17.058 13.313 5.022 5.022 0 0 0 7.703-6.445M123.41 109.238a5.023 5.023 0 0 0-7.074.63 51.8 51.8 0 0 1-17.059 13.312 5.022 5.022 0 0 0 4.371 9.043c7.778-3.762 14.829-9.262 20.391-15.91a5.023 5.023 0 0 0-.629-7.075M54.723 123.18a51.8 51.8 0 0 1-17.059-13.313 5.023 5.023 0 0 0-7.703 6.445c5.562 6.649 12.613 12.149 20.39 15.91a5.022 5.022 0 0 0 4.372-9.042m0 0" style="stroke:none;fill-rule:nonzero;fill:#000;fill-opacity:1"/></svg>