<svg xmlns="http://www.w3.org/2000/svg" width="133" height="133"><path d="M121.313 60.266h-13.61L99.691 46.53c-3.695-6.336-10.046-10.66-17.16-11.883A20.95 20.95 0 0 0 87.54 21.04C87.54 9.437 78.102 0 66.5 0S45.46 9.438 45.46 21.04c0 5.187 1.888 9.937 5.009 13.605-7.114 1.226-13.465 5.55-17.16 11.886l-8.012 13.735h-13.61C5.243 60.266 0 65.508 0 71.953c0 6.45 5.242 11.692 11.688 11.692h19.32a11.63 11.63 0 0 0 9.914-5.493l1.71-2.742 1.423 24.227-12.008-2.309c-11.102-2.133-21.399 6.371-21.399 17.676 0 9.937 8.059 17.996 18 17.996h75.704c9.941 0 18-8.059 18-17.996 0-11.305-10.297-19.809-21.399-17.676l-12.008 2.313 1.422-24.23 1.711 2.741a11.63 11.63 0 0 0 9.914 5.493h19.317c6.449 0 11.691-5.243 11.691-11.692 0-6.445-5.242-11.687-11.691-11.687ZM66.5 7.793c7.305 0 13.25 5.941 13.25 13.246 0 7.309-5.945 13.25-13.25 13.25s-13.25-5.941-13.25-13.25c0-7.305 5.945-13.246 13.25-13.246M47.016 119.145c0 2.171.507 4.23 1.402 6.062h-19.77c-5.636 0-10.203-4.57-10.203-10.203 0-6.41 5.836-11.23 12.13-10.024l20.874 4.016a13.85 13.85 0 0 0-4.433 10.149m55.41-14.165c6.293-1.207 12.129 3.614 12.129 10.024 0 5.633-4.567 10.203-10.203 10.203h-43.48a6.07 6.07 0 0 1-6.063-6.062 6.08 6.08 0 0 1 4.918-5.954Zm18.886-29.128h-19.32a3.87 3.87 0 0 1-3.305-1.832l-8.19-13.102c-2.013-3.223-6.974-1.953-7.196 1.836l-2.254 38.402-14.547 2.797-14.547-2.797L49.7 62.754c-.222-3.79-5.183-5.059-7.195-1.836L34.313 74.02a3.87 3.87 0 0 1-3.305 1.832H11.69a3.9 3.9 0 0 1-3.898-3.895 3.9 3.9 0 0 1 3.898-3.898h15.844a3.9 3.9 0 0 0 3.367-1.934l9.137-15.664a16.94 16.94 0 0 1 14.586-8.379h23.75c5.984 0 11.57 3.211 14.586 8.379l9.137 15.664c.699 1.2 1.98 1.934 3.367 1.934h15.847a3.898 3.898 0 0 1 0 7.793m0 0" style="stroke:none;fill-rule:nonzero;fill:#000;fill-opacity:1"/><path d="M.523 37.535a3.89 3.89 0 0 0 5.32 1.426l3.962-2.285a11.7 11.7 0 0 0 3.695 2.136v4.57a3.895 3.895 0 0 0 3.895 3.895 3.9 3.9 0 0 0 3.898-3.894v-4.57a11.7 11.7 0 0 0 3.691-2.137l3.961 2.285a3.89 3.89 0 0 0 5.32-1.426 3.89 3.89 0 0 0-1.425-5.32l-3.953-2.285c.125-.692.199-1.407.199-2.133 0-.73-.07-1.445-.2-2.137l3.954-2.285a3.89 3.89 0 0 0 1.426-5.32 3.89 3.89 0 0 0-5.32-1.426l-3.962 2.285a11.8 11.8 0 0 0-3.691-2.137v-4.566a3.896 3.896 0 1 0-7.793 0v4.566a11.7 11.7 0 0 0-3.695 2.137L5.844 16.63a3.89 3.89 0 0 0-5.32 1.426 3.89 3.89 0 0 0 1.425 5.32l3.953 2.285a12 12 0 0 0-.195 2.137c0 .726.07 1.441.195 2.133L1.95 32.215a3.89 3.89 0 0 0-1.426 5.32m16.872-13.637a3.9 3.9 0 0 1 3.898 3.899 3.9 3.9 0 0 1-3.898 3.894 3.898 3.898 0 0 1 0-7.793M103.2 35.586c4.12 3.512 8.202 5.879 8.374 5.977a3.9 3.9 0 0 0 3.887 0c.172-.098 4.254-2.465 8.375-5.977 6.082-5.18 9.164-10.223 9.164-14.984 0-6.778-5.512-12.29-12.29-12.29-2.647 0-5.14.833-7.194 2.336a12.1 12.1 0 0 0-7.192-2.335c-6.777 0-12.289 5.511-12.289 12.289 0 4.761 3.082 9.804 9.164 14.984m3.124-19.48c1.578 0 3.016.831 3.844 2.226 1.508 2.543 5.191 2.543 6.7 0 .827-1.395 2.265-2.227 3.843-2.227a4.5 4.5 0 0 1 4.496 4.497c0 3.882-6.312 9.511-11.687 13.011-5.286-3.453-11.692-9.164-11.692-13.011a4.5 4.5 0 0 1 4.496-4.497m0 0" style="stroke:none;fill-rule:nonzero;fill:#000;fill-opacity:1"/></svg>