<svg xmlns="http://www.w3.org/2000/svg" width="164" height="164"><path d="M94.2 76.84c0-6.735-5.462-12.195-12.2-12.195s-12.2 5.46-12.2 12.195c0 6.738 5.462 12.2 12.2 12.2s12.2-5.462 12.2-12.2M47.848 101.094l-2.7-.692c-20.05-5.062-31.55-13.672-31.55-23.59 0-9.921 11.507-18.523 31.55-23.585l2.7-.684.757 2.672a133.4 133.4 0 0 0 7.762 20.383l.582 1.215-.582 1.218a132.5 132.5 0 0 0-7.762 20.395ZM43.902 59.44c-15.23 4.293-24.586 10.84-24.586 17.371 0 6.52 9.348 13.075 24.586 17.36a143 143 0 0 1 6.735-17.36 139 139 0 0 1-6.735-17.37m72.243 41.653-.75-2.68a134 134 0 0 0-7.77-20.39l-.582-1.212.582-1.222a133.6 133.6 0 0 0 7.77-20.39l.75-2.665 2.699.684c20.058 5.062 31.55 13.664 31.55 23.594 0 9.921-11.5 18.527-31.55 23.59Zm-2.801-24.281c2.734 5.917 5.008 11.742 6.746 17.359 15.238-4.285 24.594-10.84 24.594-17.36 0-6.53-9.348-13.07-24.594-17.37a141 141 0 0 1-6.746 17.37m0 0" style="stroke:none;fill-rule:nonzero;fill:#000;fill-opacity:1"/><path d="m43.863 59.414-.75-2.664c-5.644-19.871-3.937-34.105 4.692-39.066 8.441-4.883 22.02.89 36.238 15.48l1.941 1.992-1.941 1.989A135 135 0 0 0 70.238 54.05l-.77 1.11-1.34.109a134.4 134.4 0 0 0-21.573 3.476Zm10.809-37.781c-1.527 0-2.883.336-4.024.992-5.656 3.258-6.656 14.61-2.761 29.93a143 143 0 0 1 18.426-2.848 143 143 0 0 1 11.703-14.508c-8.903-8.66-17.309-13.566-23.344-13.566M109.32 137.69c-8.117 0-18.547-6.12-29.37-17.234l-1.934-1.988 1.933-1.98a135.7 135.7 0 0 0 13.813-16.927l.765-1.093 1.325-.13a133.4 133.4 0 0 0 21.578-3.464l2.699-.684.758 2.672c5.617 19.856 3.918 34.11-4.7 39.07a13.5 13.5 0 0 1-6.867 1.758m-23.336-19.27c8.895 8.657 17.309 13.571 23.336 13.571 1.535 0 2.89-.34 4.024-.992 5.664-3.266 6.672-14.637 2.761-29.957a141 141 0 0 1-18.437 2.863 140 140 0 0 1-11.684 14.516m0 0" style="stroke:none;fill-rule:nonzero;fill:#000;fill-opacity:1"/><path d="m120.129 59.414-2.7-.676c-7.085-1.75-14.3-2.91-21.577-3.476l-1.325-.117-.765-1.106a133.6 133.6 0 0 0-13.813-16.906l-1.933-1.988 1.933-1.98c14.215-14.587 27.785-20.36 36.239-15.481 8.624 4.968 10.34 19.203 4.699 39.066Zm-22.461-9.707c6.52.578 12.695 1.555 18.437 2.848 3.903-15.32 2.903-26.672-2.761-29.938-5.63-3.258-16.227 1.73-27.36 12.582a141 141 0 0 1 11.684 14.508m-42.996 87.984a13.5 13.5 0 0 1-6.867-1.757c-8.63-4.961-10.336-19.207-4.7-39.07l.739-2.673 2.699.684c6.586 1.66 13.844 2.828 21.578 3.465l1.324.129.774 1.094a134 134 0 0 0 13.804 16.925l1.942 1.98-1.942 1.989c-10.816 11.117-21.246 17.234-29.351 17.234m-6.785-36.64c-3.895 15.32-2.895 26.691 2.761 29.957 5.637 3.21 16.204-1.742 27.368-12.586a144 144 0 0 1-11.704-14.508 141 141 0 0 1-18.425-2.863m0 0" style="stroke:none;fill-rule:nonzero;fill:#000;fill-opacity:1"/><path d="M82 104.64c-4.695 0-9.512-.199-14.352-.6l-1.335-.118-.774-1.11a174 174 0 0 1-7.695-12.085 177 177 0 0 1-6.633-12.704l-.574-1.21.574-1.223a179 179 0 0 1 6.633-12.695A183 183 0 0 1 65.539 50.8l.773-1.094 1.336-.125c9.547-.8 19.141-.8 28.688 0l1.324.129.774 1.094a172 172 0 0 1 14.351 24.793l.567 1.222-.567 1.211a169 169 0 0 1-14.351 24.79l-.774 1.109-1.324.113c-4.824.39-9.648.598-14.336.598m-12.531-6.18c8.437.638 16.625.638 25.058 0a167 167 0 0 0 12.516-21.647 163.6 163.6 0 0 0-12.516-21.649c-8.343-.64-16.718-.64-25.058 0a162 162 0 0 0-12.52 21.649A169.4 169.4 0 0 0 69.47 98.46m0 0" style="stroke:none;fill-rule:nonzero;fill:#000;fill-opacity:1"/></svg>