<svg xmlns="http://www.w3.org/2000/svg" width="150" height="150"><path d="M43.813 63.793h-5.899l-3.219 16.55h5.235c3.476 0 6.062-.656 7.765-1.96 1.7-1.313 2.844-3.496 3.438-6.559.574-2.937.312-5.011-.778-6.219-1.093-1.207-3.27-1.812-6.542-1.812M75 35.551C33.582 35.55 0 53.21 0 75c0 21.79 33.582 39.457 75 39.457S150 96.789 150 75s-33.582-39.45-75-39.45M54.625 82.117a15.2 15.2 0 0 1-5.73 3.445c-2.102.676-4.782 1.024-8.032 1.024H33.48l-2.042 10.508h-8.614l7.688-39.54h16.562q7.47.001 10.903 3.926 3.427 3.92 2.062 10.95a17.9 17.9 0 0 1-1.906 5.297c-.895 1.593-2.063 3.062-3.508 4.39m25.148 4.469 3.395-17.492c.394-1.989.246-3.352-.426-4.07q-1-1.086-4.293-1.087h-6.824l-4.398 22.657h-8.551l7.687-39.543h8.543l-2.043 10.511h7.614c4.793 0 8.093.836 9.91 2.508 1.82 1.668 2.363 4.375 1.644 8.118l-3.574 18.398Zm47.485-14.156a17.4 17.4 0 0 1-1.906 5.297c-.895 1.593-2.063 3.062-3.508 4.39a15.3 15.3 0 0 1-5.73 3.445c-2.102.676-4.782 1.024-8.04 1.024H100.7l-2.043 10.516h-8.613l7.687-39.54h16.56c4.98 0 8.608 1.305 10.897 3.926q3.436 3.91 2.07 10.942m-16.219-8.637h-5.894l-3.227 16.55h5.238c3.48 0 6.07-.656 7.762-1.96 1.7-1.313 2.844-3.496 3.445-6.559.575-2.937.305-5.011-.781-6.219-1.09-1.207-3.277-1.812-6.543-1.812m0 0" style="stroke:none;fill-rule:nonzero;fill:#000;fill-opacity:1"/></svg>